<svg xmlns="http://www.w3.org/2000/svg" width="20.123" height="20.123" viewBox="0 0 20.123 20.123">
  <g id="Group_13" data-name="Group 13" transform="translate(-134.15 0)">
    <path id="Path" d="M10.061,0C7.329,0,6.987.012,5.914.06,2.26.228.229,2.255.061,5.913.012,6.987,0,7.329,0,10.061s.012,3.075.06,4.149c.168,3.654,2.2,5.685,5.852,5.852,1.074.049,1.416.06,4.149.06s3.075-.012,4.149-.06c3.651-.168,5.686-2.2,5.851-5.852.049-1.073.061-1.416.061-4.149s-.012-3.075-.06-4.148C19.9,2.263,17.868.229,14.211.061,13.137.012,12.794,0,10.061,0Z" transform="translate(134.15)" fill="#dfdfdf"/>
    <path id="Path-2" data-name="Path" d="M5.166,0a5.167,5.167,0,1,0,5.166,5.166A5.167,5.167,0,0,0,5.166,0Z" transform="translate(139.045 4.895)" fill="#1d1c1e"/>
    <path id="Path-3" data-name="Path" d="M3.354,6.708A3.354,3.354,0,1,1,6.708,3.354,3.353,3.353,0,0,1,3.354,6.708Z" transform="translate(140.858 6.708)" fill="#dfdfdf"/>
    <path id="Path-4" data-name="Path" d="M1.208,0A1.207,1.207,0,1,0,2.415,1.207,1.208,1.208,0,0,0,1.208,0Z" transform="translate(148.375 3.484)" fill="#1d1c1e"/>
  </g>
</svg>
