<svg xmlns="http://www.w3.org/2000/svg" width="20.123" height="20.123" viewBox="0 0 20.123 20.123">
  <path id="Path" d="M10.061,0A10.061,10.061,0,0,0,6.395,19.43a9.619,9.619,0,0,1,.035-2.885c.183-.786,1.18-5,1.18-5a3.634,3.634,0,0,1-.3-1.494c0-1.4.811-2.443,1.82-2.443A1.264,1.264,0,0,1,10.4,9.023a20.229,20.229,0,0,1-.833,3.35,1.461,1.461,0,0,0,1.49,1.819c1.788,0,3.163-1.886,3.163-4.607a3.971,3.971,0,0,0-4.2-4.093A4.355,4.355,0,0,0,5.476,9.857a3.909,3.909,0,0,0,.749,2.3.3.3,0,0,1,.07.289l-.279,1.14c-.044.184-.146.224-.337.135-1.257-.585-2.042-2.422-2.042-3.9,0-3.173,2.306-6.089,6.648-6.089a5.9,5.9,0,0,1,6.2,5.811c0,3.468-2.186,6.258-5.221,6.258A2.69,2.69,0,0,1,8.96,14.644l-.627,2.392a11.2,11.2,0,0,1-1.251,2.638A10.062,10.062,0,1,0,10.061,0Z" fill="#dfdfdf"/>
</svg>
