<svg xmlns="http://www.w3.org/2000/svg" width="20.123" height="16.353" viewBox="0 0 20.123 16.353">
  <path id="Path" d="M20.123,1.936a8.242,8.242,0,0,1-2.371.65A4.135,4.135,0,0,0,19.567.3a8.27,8.27,0,0,1-2.622,1A4.131,4.131,0,0,0,9.91,5.068,11.72,11.72,0,0,1,1.4.755,4.134,4.134,0,0,0,2.678,6.267,4.111,4.111,0,0,1,.809,5.751a4.131,4.131,0,0,0,3.311,4.1,4.138,4.138,0,0,1-1.865.07,4.131,4.131,0,0,0,3.857,2.867A8.3,8.3,0,0,1,0,14.5a11.687,11.687,0,0,0,6.329,1.855A11.676,11.676,0,0,0,18.063,4.073,8.4,8.4,0,0,0,20.123,1.936Z" fill="#dfdfdf"/>
</svg>
