<svg xmlns="http://www.w3.org/2000/svg" width="20.123" height="20.123" viewBox="0 0 20.123 20.123">
  <g id="Group_12" data-name="Group 12" transform="translate(-33.538)">
    <path id="Path" d="M10.061,0A10.061,10.061,0,1,0,20.123,10.061,10.062,10.062,0,0,0,10.061,0Z" transform="translate(33.538)" fill="#dfdfdf"/>
    <path id="Path-2" data-name="Path" d="M9.593,8.294c-1.762.121-5.688.121-7.448,0C.236,8.163.014,7.229,0,4.192.014,1.15.239.221,2.145.091,3.9-.03,7.831-.03,9.593.091c1.909.131,2.13,1.065,2.146,4.1C11.723,7.235,11.5,8.163,9.593,8.294Z" transform="translate(37.73 5.869)" fill="#1d1c1e"/>
    <path id="Path-3" data-name="Path" d="M0,0,4.123,1.96,0,3.927V0Z" transform="translate(41.922 8.098)" fill="#dfdfdf"/>
  </g>
</svg>
